<mxfile host="app.diagrams.net" agent="Mozilla/5.0 (Windows NT 10.0; Win64; x64) AppleWebKit/537.36 (KHTML, like Gecko) Chrome/126.0.0.0 Safari/537.36" version="24.7.10">
  <diagram name="Page-1" id="113YbZ88T134uzQnZ3Du">
    <mxGraphModel dx="2963" dy="1580" grid="1" gridSize="10" guides="1" tooltips="1" connect="1" arrows="1" fold="1" page="1" pageScale="1" pageWidth="2336" pageHeight="1654" math="0" shadow="0">
      <root>
        <mxCell id="0" />
        <mxCell id="1" parent="0" />
        <mxCell id="DjzMqCNCpp32R4Y7mPO1-39" style="edgeStyle=orthogonalEdgeStyle;rounded=0;orthogonalLoop=1;jettySize=auto;html=1;entryX=-0.001;entryY=0.705;entryDx=0;entryDy=0;entryPerimeter=0;" parent="1" source="DjzMqCNCpp32R4Y7mPO1-40" target="DjzMqCNCpp32R4Y7mPO1-110" edge="1">
          <mxGeometry relative="1" as="geometry">
            <mxPoint x="2158" y="1092" as="targetPoint" />
            <Array as="points">
              <mxPoint x="858" y="1172" />
              <mxPoint x="858" y="802" />
            </Array>
          </mxGeometry>
        </mxCell>
        <mxCell id="DjzMqCNCpp32R4Y7mPO1-56" style="edgeStyle=orthogonalEdgeStyle;rounded=0;orthogonalLoop=1;jettySize=auto;html=1;" parent="1" source="DjzMqCNCpp32R4Y7mPO1-57" edge="1">
          <mxGeometry relative="1" as="geometry">
            <mxPoint x="2068" y="802" as="targetPoint" />
          </mxGeometry>
        </mxCell>
        <mxCell id="DjzMqCNCpp32R4Y7mPO1-63" value="" style="group" parent="1" vertex="1" connectable="0">
          <mxGeometry x="1568" y="682" width="485" height="520" as="geometry" />
        </mxCell>
        <mxCell id="Fisk6T6DbjHirBb1iTBB-12" style="edgeStyle=orthogonalEdgeStyle;rounded=0;orthogonalLoop=1;jettySize=auto;html=1;" edge="1" parent="DjzMqCNCpp32R4Y7mPO1-63" source="DjzMqCNCpp32R4Y7mPO1-32">
          <mxGeometry relative="1" as="geometry">
            <mxPoint x="-38" y="398" as="targetPoint" />
            <Array as="points">
              <mxPoint x="17" y="378" />
              <mxPoint x="17" y="399" />
            </Array>
          </mxGeometry>
        </mxCell>
        <mxCell id="DjzMqCNCpp32R4Y7mPO1-32" value="" style="verticalLabelPosition=bottom;outlineConnect=0;align=center;dashed=0;html=1;verticalAlign=top;shape=mxgraph.pid2misc.column;columnType=tray" parent="DjzMqCNCpp32R4Y7mPO1-63" vertex="1">
          <mxGeometry x="70" y="100" width="110" height="300" as="geometry" />
        </mxCell>
        <mxCell id="DjzMqCNCpp32R4Y7mPO1-33" style="edgeStyle=orthogonalEdgeStyle;rounded=0;orthogonalLoop=1;jettySize=auto;html=1;" parent="DjzMqCNCpp32R4Y7mPO1-63" target="DjzMqCNCpp32R4Y7mPO1-38" edge="1">
          <mxGeometry relative="1" as="geometry">
            <Array as="points">
              <mxPoint x="350" y="440" />
              <mxPoint x="350" y="440" />
            </Array>
            <mxPoint x="310" y="440" as="sourcePoint" />
          </mxGeometry>
        </mxCell>
        <mxCell id="DjzMqCNCpp32R4Y7mPO1-34" value="" style="shape=mxgraph.pid.vessels.pressurized_vessel;html=1;pointerEvents=1;align=center;verticalLabelPosition=bottom;verticalAlign=top;dashed=0;" parent="DjzMqCNCpp32R4Y7mPO1-63" vertex="1">
          <mxGeometry x="270" width="80" height="60" as="geometry" />
        </mxCell>
        <mxCell id="DjzMqCNCpp32R4Y7mPO1-35" style="edgeStyle=orthogonalEdgeStyle;rounded=0;orthogonalLoop=1;jettySize=auto;html=1;entryX=0.005;entryY=0.49;entryDx=0;entryDy=0;entryPerimeter=0;" parent="DjzMqCNCpp32R4Y7mPO1-63" source="DjzMqCNCpp32R4Y7mPO1-32" target="DjzMqCNCpp32R4Y7mPO1-34" edge="1">
          <mxGeometry relative="1" as="geometry">
            <mxPoint x="280" y="30" as="targetPoint" />
            <Array as="points">
              <mxPoint x="125" y="29" />
            </Array>
          </mxGeometry>
        </mxCell>
        <mxCell id="DjzMqCNCpp32R4Y7mPO1-36" value="" style="endArrow=classic;html=1;rounded=0;entryX=-0.004;entryY=0.609;entryDx=0;entryDy=0;entryPerimeter=0;" parent="DjzMqCNCpp32R4Y7mPO1-63" edge="1">
          <mxGeometry width="50" height="50" relative="1" as="geometry">
            <mxPoint x="120" y="400" as="sourcePoint" />
            <mxPoint x="199.55999999999995" y="446.5400000000002" as="targetPoint" />
            <Array as="points">
              <mxPoint x="120" y="447" />
            </Array>
          </mxGeometry>
        </mxCell>
        <mxCell id="DjzMqCNCpp32R4Y7mPO1-37" value="" style="endArrow=classic;html=1;rounded=0;" parent="DjzMqCNCpp32R4Y7mPO1-63" edge="1">
          <mxGeometry width="50" height="50" relative="1" as="geometry">
            <mxPoint x="270" y="410" as="sourcePoint" />
            <mxPoint x="180" y="381.27" as="targetPoint" />
            <Array as="points">
              <mxPoint x="270" y="380" />
            </Array>
          </mxGeometry>
        </mxCell>
        <mxCell id="DjzMqCNCpp32R4Y7mPO1-38" value="" style="verticalLabelPosition=bottom;outlineConnect=0;align=center;dashed=0;html=1;verticalAlign=top;shape=mxgraph.pid.compressors.centrifugal_compressor" parent="DjzMqCNCpp32R4Y7mPO1-63" vertex="1">
          <mxGeometry x="370" y="420" width="40" height="40" as="geometry" />
        </mxCell>
        <mxCell id="DjzMqCNCpp32R4Y7mPO1-41" style="edgeStyle=orthogonalEdgeStyle;rounded=0;orthogonalLoop=1;jettySize=auto;html=1;exitX=1;exitY=0;exitDx=0;exitDy=0;exitPerimeter=0;entryX=1;entryY=0.6;entryDx=0;entryDy=0;entryPerimeter=0;" parent="DjzMqCNCpp32R4Y7mPO1-63" edge="1" target="DjzMqCNCpp32R4Y7mPO1-40">
          <mxGeometry relative="1" as="geometry">
            <mxPoint x="-144" y="490" as="targetPoint" />
            <mxPoint x="410" y="420" as="sourcePoint" />
            <Array as="points">
              <mxPoint x="432" y="420" />
              <mxPoint x="432" y="488" />
              <mxPoint x="52" y="488" />
              <mxPoint x="52" y="490" />
            </Array>
          </mxGeometry>
        </mxCell>
        <mxCell id="DjzMqCNCpp32R4Y7mPO1-42" style="edgeStyle=orthogonalEdgeStyle;rounded=0;orthogonalLoop=1;jettySize=auto;html=1;" parent="DjzMqCNCpp32R4Y7mPO1-63" source="DjzMqCNCpp32R4Y7mPO1-43" target="DjzMqCNCpp32R4Y7mPO1-32" edge="1">
          <mxGeometry relative="1" as="geometry" />
        </mxCell>
        <mxCell id="DjzMqCNCpp32R4Y7mPO1-43" value="" style="verticalLabelPosition=bottom;align=center;html=1;verticalAlign=top;pointerEvents=1;dashed=0;shape=mxgraph.pid2valves.valve;valveType=ball" parent="DjzMqCNCpp32R4Y7mPO1-63" vertex="1">
          <mxGeometry y="240" width="30" height="20" as="geometry" />
        </mxCell>
        <mxCell id="DjzMqCNCpp32R4Y7mPO1-48" value="" style="shape=mxgraph.pid.heat_exchangers.reboiler;html=1;pointerEvents=1;align=center;verticalLabelPosition=bottom;verticalAlign=top;dashed=0;" parent="DjzMqCNCpp32R4Y7mPO1-63" vertex="1">
          <mxGeometry x="200" y="410" width="110" height="50" as="geometry" />
        </mxCell>
        <mxCell id="DjzMqCNCpp32R4Y7mPO1-54" value="" style="verticalLabelPosition=bottom;outlineConnect=0;align=center;dashed=0;html=1;verticalAlign=top;shape=mxgraph.pid.compressors.centrifugal_compressor;rotation=90;" parent="DjzMqCNCpp32R4Y7mPO1-63" vertex="1">
          <mxGeometry x="300" y="80" width="30" height="30" as="geometry" />
        </mxCell>
        <mxCell id="DjzMqCNCpp32R4Y7mPO1-55" value="" style="verticalLabelPosition=bottom;align=center;html=1;verticalAlign=top;pointerEvents=1;dashed=0;shape=mxgraph.pid2valves.valve;valveType=ball" parent="DjzMqCNCpp32R4Y7mPO1-63" vertex="1">
          <mxGeometry x="219" y="110" width="30" height="20" as="geometry" />
        </mxCell>
        <mxCell id="DjzMqCNCpp32R4Y7mPO1-57" value="" style="verticalLabelPosition=bottom;align=center;html=1;verticalAlign=top;pointerEvents=1;dashed=0;shape=mxgraph.pid2valves.valve;valveType=ball" parent="DjzMqCNCpp32R4Y7mPO1-63" vertex="1">
          <mxGeometry x="390" y="110" width="30" height="20" as="geometry" />
        </mxCell>
        <mxCell id="DjzMqCNCpp32R4Y7mPO1-58" value="" style="endArrow=classic;html=1;rounded=0;exitX=-0.014;exitY=0.443;exitDx=0;exitDy=0;exitPerimeter=0;" parent="DjzMqCNCpp32R4Y7mPO1-63" source="DjzMqCNCpp32R4Y7mPO1-55" edge="1">
          <mxGeometry width="50" height="50" relative="1" as="geometry">
            <mxPoint x="207.29999999999995" y="119.15000000000009" as="sourcePoint" />
            <mxPoint x="180" y="118.86000000000013" as="targetPoint" />
          </mxGeometry>
        </mxCell>
        <mxCell id="DjzMqCNCpp32R4Y7mPO1-60" style="edgeStyle=orthogonalEdgeStyle;rounded=0;orthogonalLoop=1;jettySize=auto;html=1;entryX=0.993;entryY=0.5;entryDx=0;entryDy=0;entryPerimeter=0;exitX=1;exitY=0;exitDx=0;exitDy=0;exitPerimeter=0;" parent="DjzMqCNCpp32R4Y7mPO1-63" source="DjzMqCNCpp32R4Y7mPO1-54" target="DjzMqCNCpp32R4Y7mPO1-55" edge="1">
          <mxGeometry relative="1" as="geometry">
            <mxPoint x="410" y="150" as="targetPoint" />
            <mxPoint x="320" y="120" as="sourcePoint" />
            <Array as="points">
              <mxPoint x="330" y="120" />
            </Array>
          </mxGeometry>
        </mxCell>
        <mxCell id="DjzMqCNCpp32R4Y7mPO1-61" value="" style="endArrow=classic;html=1;rounded=0;entryX=-0.012;entryY=0.504;entryDx=0;entryDy=0;entryPerimeter=0;" parent="DjzMqCNCpp32R4Y7mPO1-63" target="DjzMqCNCpp32R4Y7mPO1-57" edge="1">
          <mxGeometry width="50" height="50" relative="1" as="geometry">
            <mxPoint x="330" y="120" as="sourcePoint" />
            <mxPoint x="470" y="150" as="targetPoint" />
          </mxGeometry>
        </mxCell>
        <mxCell id="DjzMqCNCpp32R4Y7mPO1-62" style="edgeStyle=orthogonalEdgeStyle;rounded=0;orthogonalLoop=1;jettySize=auto;html=1;entryX=0.01;entryY=0.5;entryDx=0;entryDy=0;entryPerimeter=0;" parent="DjzMqCNCpp32R4Y7mPO1-63" target="DjzMqCNCpp32R4Y7mPO1-54" edge="1">
          <mxGeometry relative="1" as="geometry">
            <mxPoint x="315" y="60" as="sourcePoint" />
            <Array as="points">
              <mxPoint x="315" y="70" />
              <mxPoint x="315" y="70" />
            </Array>
          </mxGeometry>
        </mxCell>
        <mxCell id="DjzMqCNCpp32R4Y7mPO1-40" value="" style="verticalLabelPosition=bottom;align=center;html=1;verticalAlign=top;pointerEvents=1;dashed=0;shape=mxgraph.pid2valves.valve;valveType=ball" parent="DjzMqCNCpp32R4Y7mPO1-63" vertex="1">
          <mxGeometry x="-78" y="478" width="30" height="20" as="geometry" />
        </mxCell>
        <mxCell id="DjzMqCNCpp32R4Y7mPO1-69" style="edgeStyle=orthogonalEdgeStyle;rounded=0;orthogonalLoop=1;jettySize=auto;html=1;entryX=0;entryY=0.25;entryDx=0;entryDy=0;" parent="1" source="DjzMqCNCpp32R4Y7mPO1-90" target="DjzMqCNCpp32R4Y7mPO1-103" edge="1">
          <mxGeometry relative="1" as="geometry">
            <mxPoint x="2068" y="92" as="targetPoint" />
            <Array as="points">
              <mxPoint x="1670" y="632" />
              <mxPoint x="1670" y="360" />
              <mxPoint x="498" y="360" />
            </Array>
          </mxGeometry>
        </mxCell>
        <mxCell id="DjzMqCNCpp32R4Y7mPO1-70" value="" style="group;movable=1;resizable=1;rotatable=1;deletable=1;editable=1;locked=0;connectable=1;" parent="1" vertex="1" connectable="0">
          <mxGeometry x="1108" y="512" width="492" height="528" as="geometry" />
        </mxCell>
        <mxCell id="DjzMqCNCpp32R4Y7mPO1-71" value="" style="verticalLabelPosition=bottom;outlineConnect=0;align=center;dashed=0;html=1;verticalAlign=top;shape=mxgraph.pid2misc.column;columnType=tray" parent="DjzMqCNCpp32R4Y7mPO1-70" vertex="1">
          <mxGeometry x="70" y="100" width="110" height="300" as="geometry" />
        </mxCell>
        <mxCell id="DjzMqCNCpp32R4Y7mPO1-72" style="edgeStyle=orthogonalEdgeStyle;rounded=0;orthogonalLoop=1;jettySize=auto;html=1;" parent="DjzMqCNCpp32R4Y7mPO1-70" target="DjzMqCNCpp32R4Y7mPO1-77" edge="1">
          <mxGeometry relative="1" as="geometry">
            <Array as="points">
              <mxPoint x="350" y="440" />
              <mxPoint x="350" y="440" />
            </Array>
            <mxPoint x="310" y="440" as="sourcePoint" />
          </mxGeometry>
        </mxCell>
        <mxCell id="DjzMqCNCpp32R4Y7mPO1-73" value="" style="shape=mxgraph.pid.vessels.pressurized_vessel;html=1;pointerEvents=1;align=center;verticalLabelPosition=bottom;verticalAlign=top;dashed=0;" parent="DjzMqCNCpp32R4Y7mPO1-70" vertex="1">
          <mxGeometry x="282" width="80" height="60" as="geometry" />
        </mxCell>
        <mxCell id="DjzMqCNCpp32R4Y7mPO1-74" style="edgeStyle=orthogonalEdgeStyle;rounded=0;orthogonalLoop=1;jettySize=auto;html=1;entryX=0.124;entryY=0.5;entryDx=0;entryDy=0;entryPerimeter=0;" parent="DjzMqCNCpp32R4Y7mPO1-70" source="DjzMqCNCpp32R4Y7mPO1-71" target="raOoSxsyEfahjdPdxXgE-40" edge="1">
          <mxGeometry relative="1" as="geometry">
            <mxPoint x="172" y="-12" as="targetPoint" />
            <Array as="points">
              <mxPoint x="125" y="29" />
              <mxPoint x="172" y="29" />
              <mxPoint x="172" y="30" />
            </Array>
          </mxGeometry>
        </mxCell>
        <mxCell id="DjzMqCNCpp32R4Y7mPO1-76" value="" style="endArrow=classic;html=1;rounded=0;exitX=0.45;exitY=0;exitDx=0;exitDy=0;exitPerimeter=0;" parent="DjzMqCNCpp32R4Y7mPO1-70" edge="1" source="DjzMqCNCpp32R4Y7mPO1-84">
          <mxGeometry width="50" height="50" relative="1" as="geometry">
            <mxPoint x="270" y="410" as="sourcePoint" />
            <mxPoint x="180" y="381.27" as="targetPoint" />
            <Array as="points">
              <mxPoint x="282" y="380" />
            </Array>
          </mxGeometry>
        </mxCell>
        <mxCell id="DjzMqCNCpp32R4Y7mPO1-77" value="" style="verticalLabelPosition=bottom;outlineConnect=0;align=center;dashed=0;html=1;verticalAlign=top;shape=mxgraph.pid.compressors.centrifugal_compressor" parent="DjzMqCNCpp32R4Y7mPO1-70" vertex="1">
          <mxGeometry x="370" y="420" width="40" height="40" as="geometry" />
        </mxCell>
        <mxCell id="DjzMqCNCpp32R4Y7mPO1-80" style="edgeStyle=orthogonalEdgeStyle;rounded=0;orthogonalLoop=1;jettySize=auto;html=1;" parent="DjzMqCNCpp32R4Y7mPO1-70" source="DjzMqCNCpp32R4Y7mPO1-81" target="DjzMqCNCpp32R4Y7mPO1-71" edge="1">
          <mxGeometry relative="1" as="geometry" />
        </mxCell>
        <mxCell id="DjzMqCNCpp32R4Y7mPO1-81" value="" style="verticalLabelPosition=bottom;align=center;html=1;verticalAlign=top;pointerEvents=1;dashed=0;shape=mxgraph.pid2valves.valve;valveType=ball" parent="DjzMqCNCpp32R4Y7mPO1-70" vertex="1">
          <mxGeometry y="240" width="30" height="20" as="geometry" />
        </mxCell>
        <mxCell id="DjzMqCNCpp32R4Y7mPO1-84" value="" style="shape=mxgraph.pid.heat_exchangers.reboiler;html=1;pointerEvents=1;align=center;verticalLabelPosition=bottom;verticalAlign=top;dashed=0;" parent="DjzMqCNCpp32R4Y7mPO1-70" vertex="1">
          <mxGeometry x="232" y="415" width="110" height="50" as="geometry" />
        </mxCell>
        <mxCell id="DjzMqCNCpp32R4Y7mPO1-88" value="" style="verticalLabelPosition=bottom;outlineConnect=0;align=center;dashed=0;html=1;verticalAlign=top;shape=mxgraph.pid.compressors.centrifugal_compressor;rotation=90;" parent="DjzMqCNCpp32R4Y7mPO1-70" vertex="1">
          <mxGeometry x="312" y="80" width="30" height="30" as="geometry" />
        </mxCell>
        <mxCell id="DjzMqCNCpp32R4Y7mPO1-89" value="" style="verticalLabelPosition=bottom;align=center;html=1;verticalAlign=top;pointerEvents=1;dashed=0;shape=mxgraph.pid2valves.valve;valveType=ball" parent="DjzMqCNCpp32R4Y7mPO1-70" vertex="1">
          <mxGeometry x="219" y="110" width="30" height="20" as="geometry" />
        </mxCell>
        <mxCell id="DjzMqCNCpp32R4Y7mPO1-90" value="" style="verticalLabelPosition=bottom;align=center;html=1;verticalAlign=top;pointerEvents=1;dashed=0;shape=mxgraph.pid2valves.valve;valveType=ball" parent="DjzMqCNCpp32R4Y7mPO1-70" vertex="1">
          <mxGeometry x="380" y="110" width="30" height="20" as="geometry" />
        </mxCell>
        <mxCell id="DjzMqCNCpp32R4Y7mPO1-91" value="" style="endArrow=classic;html=1;rounded=0;exitX=-0.014;exitY=0.443;exitDx=0;exitDy=0;exitPerimeter=0;" parent="DjzMqCNCpp32R4Y7mPO1-70" source="DjzMqCNCpp32R4Y7mPO1-89" edge="1">
          <mxGeometry width="50" height="50" relative="1" as="geometry">
            <mxPoint x="207.29999999999995" y="119.15000000000009" as="sourcePoint" />
            <mxPoint x="180" y="118.86000000000013" as="targetPoint" />
          </mxGeometry>
        </mxCell>
        <mxCell id="DjzMqCNCpp32R4Y7mPO1-93" style="edgeStyle=orthogonalEdgeStyle;rounded=0;orthogonalLoop=1;jettySize=auto;html=1;entryX=0.993;entryY=0.5;entryDx=0;entryDy=0;entryPerimeter=0;exitX=1;exitY=0;exitDx=0;exitDy=0;exitPerimeter=0;" parent="DjzMqCNCpp32R4Y7mPO1-70" source="DjzMqCNCpp32R4Y7mPO1-88" target="DjzMqCNCpp32R4Y7mPO1-89" edge="1">
          <mxGeometry relative="1" as="geometry">
            <mxPoint x="410" y="150" as="targetPoint" />
            <mxPoint x="320" y="120" as="sourcePoint" />
            <Array as="points">
              <mxPoint x="342" y="120" />
            </Array>
          </mxGeometry>
        </mxCell>
        <mxCell id="DjzMqCNCpp32R4Y7mPO1-94" value="" style="endArrow=classic;html=1;rounded=0;entryX=-0.012;entryY=0.504;entryDx=0;entryDy=0;entryPerimeter=0;" parent="DjzMqCNCpp32R4Y7mPO1-70" target="DjzMqCNCpp32R4Y7mPO1-90" edge="1">
          <mxGeometry width="50" height="50" relative="1" as="geometry">
            <mxPoint x="330" y="120" as="sourcePoint" />
            <mxPoint x="470" y="150" as="targetPoint" />
          </mxGeometry>
        </mxCell>
        <mxCell id="DjzMqCNCpp32R4Y7mPO1-95" style="edgeStyle=orthogonalEdgeStyle;rounded=0;orthogonalLoop=1;jettySize=auto;html=1;entryX=0.01;entryY=0.5;entryDx=0;entryDy=0;entryPerimeter=0;" parent="DjzMqCNCpp32R4Y7mPO1-70" target="DjzMqCNCpp32R4Y7mPO1-88" edge="1">
          <mxGeometry relative="1" as="geometry">
            <mxPoint x="327" y="60" as="sourcePoint" />
            <Array as="points">
              <mxPoint x="327" y="70" />
              <mxPoint x="327" y="70" />
            </Array>
          </mxGeometry>
        </mxCell>
        <mxCell id="raOoSxsyEfahjdPdxXgE-33" value="&lt;font style=&quot;font-size: 20px;&quot;&gt;TC&lt;/font&gt;" style="ellipse;whiteSpace=wrap;html=1;" parent="DjzMqCNCpp32R4Y7mPO1-70" vertex="1">
          <mxGeometry x="-5" y="178" width="40" height="40" as="geometry" />
        </mxCell>
        <mxCell id="raOoSxsyEfahjdPdxXgE-32" value="&lt;font style=&quot;font-size: 20px;&quot;&gt;CC&lt;/font&gt;" style="ellipse;whiteSpace=wrap;html=1;" parent="DjzMqCNCpp32R4Y7mPO1-70" vertex="1">
          <mxGeometry x="-5" y="110" width="40" height="40" as="geometry" />
        </mxCell>
        <mxCell id="raOoSxsyEfahjdPdxXgE-40" value="" style="shape=mxgraph.pid.heat_exchangers.condenser;html=1;pointerEvents=1;align=center;verticalLabelPosition=bottom;verticalAlign=top;dashed=0;movable=1;resizable=1;rotatable=1;deletable=1;editable=1;locked=0;connectable=1;" parent="DjzMqCNCpp32R4Y7mPO1-70" vertex="1">
          <mxGeometry x="172" width="60" height="60" as="geometry" />
        </mxCell>
        <mxCell id="raOoSxsyEfahjdPdxXgE-41" style="edgeStyle=orthogonalEdgeStyle;rounded=0;orthogonalLoop=1;jettySize=auto;html=1;entryX=-0.021;entryY=0.494;entryDx=0;entryDy=0;entryPerimeter=0;" parent="DjzMqCNCpp32R4Y7mPO1-70" source="raOoSxsyEfahjdPdxXgE-40" target="DjzMqCNCpp32R4Y7mPO1-73" edge="1">
          <mxGeometry relative="1" as="geometry" />
        </mxCell>
        <mxCell id="raOoSxsyEfahjdPdxXgE-31" value="&lt;font style=&quot;font-size: 20px;&quot;&gt;X&lt;/font&gt;" style="ellipse;whiteSpace=wrap;html=1;" parent="DjzMqCNCpp32R4Y7mPO1-70" vertex="1">
          <mxGeometry x="214" y="158" width="40" height="40" as="geometry" />
        </mxCell>
        <mxCell id="5cSPQk3kY59FuRHNvhS5-1" value="&lt;font style=&quot;font-size: 20px;&quot;&gt;X&lt;/font&gt;" style="ellipse;whiteSpace=wrap;html=1;" parent="DjzMqCNCpp32R4Y7mPO1-70" vertex="1">
          <mxGeometry x="30" y="-2" width="40" height="40" as="geometry" />
        </mxCell>
        <mxCell id="5cSPQk3kY59FuRHNvhS5-3" value="&lt;font style=&quot;font-size: 20px;&quot;&gt;X&lt;/font&gt;" style="ellipse;whiteSpace=wrap;html=1;" parent="DjzMqCNCpp32R4Y7mPO1-70" vertex="1">
          <mxGeometry x="375" y="158" width="40" height="40" as="geometry" />
        </mxCell>
        <mxCell id="5cSPQk3kY59FuRHNvhS5-2" value="&lt;font style=&quot;font-size: 20px;&quot;&gt;X&lt;/font&gt;" style="ellipse;whiteSpace=wrap;html=1;" parent="DjzMqCNCpp32R4Y7mPO1-70" vertex="1">
          <mxGeometry x="452" y="348" width="40" height="40" as="geometry" />
        </mxCell>
        <mxCell id="Fisk6T6DbjHirBb1iTBB-2" style="edgeStyle=orthogonalEdgeStyle;rounded=0;orthogonalLoop=1;jettySize=auto;html=1;entryX=0;entryY=0.682;entryDx=0;entryDy=0;entryPerimeter=0;exitX=0.876;exitY=0.5;exitDx=0;exitDy=0;exitPerimeter=0;" edge="1" parent="DjzMqCNCpp32R4Y7mPO1-70" target="DjzMqCNCpp32R4Y7mPO1-84">
          <mxGeometry relative="1" as="geometry">
            <mxPoint x="220" y="578" as="targetPoint" />
            <mxPoint x="194.55999999999995" y="450" as="sourcePoint" />
            <Array as="points">
              <mxPoint x="195" y="449" />
            </Array>
          </mxGeometry>
        </mxCell>
        <mxCell id="Fisk6T6DbjHirBb1iTBB-6" style="edgeStyle=orthogonalEdgeStyle;rounded=0;orthogonalLoop=1;jettySize=auto;html=1;entryX=0.124;entryY=0.5;entryDx=0;entryDy=0;entryPerimeter=0;" edge="1" parent="DjzMqCNCpp32R4Y7mPO1-70" source="DjzMqCNCpp32R4Y7mPO1-71">
          <mxGeometry relative="1" as="geometry">
            <mxPoint x="149.44000000000005" y="450" as="targetPoint" />
            <Array as="points">
              <mxPoint x="125" y="450" />
            </Array>
          </mxGeometry>
        </mxCell>
        <mxCell id="Fisk6T6DbjHirBb1iTBB-3" value="" style="verticalLabelPosition=bottom;align=center;html=1;verticalAlign=top;pointerEvents=1;dashed=0;shape=mxgraph.pid2valves.valve;valveType=ball" vertex="1" parent="DjzMqCNCpp32R4Y7mPO1-70">
          <mxGeometry x="192" y="508" width="30" height="20" as="geometry" />
        </mxCell>
        <mxCell id="Fisk6T6DbjHirBb1iTBB-4" style="edgeStyle=orthogonalEdgeStyle;rounded=0;orthogonalLoop=1;jettySize=auto;html=1;entryX=0.5;entryY=0.876;entryDx=0;entryDy=0;entryPerimeter=0;" edge="1" parent="DjzMqCNCpp32R4Y7mPO1-70" source="Fisk6T6DbjHirBb1iTBB-3" target="Fisk6T6DbjHirBb1iTBB-8">
          <mxGeometry relative="1" as="geometry">
            <mxPoint x="141.63999999999987" y="480.53999999999996" as="targetPoint" />
            <Array as="points">
              <mxPoint x="172" y="518" />
            </Array>
          </mxGeometry>
        </mxCell>
        <mxCell id="Fisk6T6DbjHirBb1iTBB-8" value="" style="shape=mxgraph.pid.heat_exchangers.heater;html=1;pointerEvents=1;align=center;verticalLabelPosition=bottom;verticalAlign=top;dashed=0;" vertex="1" parent="DjzMqCNCpp32R4Y7mPO1-70">
          <mxGeometry x="142" y="420" width="60" height="60" as="geometry" />
        </mxCell>
        <mxCell id="DjzMqCNCpp32R4Y7mPO1-98" style="edgeStyle=orthogonalEdgeStyle;rounded=0;orthogonalLoop=1;jettySize=auto;html=1;exitX=1;exitY=0;exitDx=0;exitDy=0;exitPerimeter=0;entryX=0.063;entryY=0.469;entryDx=0;entryDy=0;entryPerimeter=0;" parent="1" source="DjzMqCNCpp32R4Y7mPO1-77" target="DjzMqCNCpp32R4Y7mPO1-43" edge="1">
          <mxGeometry relative="1" as="geometry">
            <Array as="points">
              <mxPoint x="1570" y="932" />
            </Array>
          </mxGeometry>
        </mxCell>
        <mxCell id="raOoSxsyEfahjdPdxXgE-11" style="edgeStyle=orthogonalEdgeStyle;rounded=0;orthogonalLoop=1;jettySize=auto;html=1;entryX=0;entryY=0.5;entryDx=0;entryDy=0;dashed=1;dashPattern=8 8;fillColor=#f8cecc;strokeColor=#b85450;" parent="1" source="DjzMqCNCpp32R4Y7mPO1-100" target="raOoSxsyEfahjdPdxXgE-8" edge="1">
          <mxGeometry relative="1" as="geometry" />
        </mxCell>
        <mxCell id="DjzMqCNCpp32R4Y7mPO1-100" value="" style="shape=mxgraph.pid.vessels.mixing_reactor;html=1;pointerEvents=1;align=center;verticalLabelPosition=bottom;verticalAlign=top;dashed=0;" parent="1" vertex="1">
          <mxGeometry x="508" y="664.5" width="150" height="195" as="geometry" />
        </mxCell>
        <mxCell id="DjzMqCNCpp32R4Y7mPO1-103" value="" style="triangle;whiteSpace=wrap;html=1;rotation=90;" parent="1" vertex="1">
          <mxGeometry x="448" y="542" width="60" height="80" as="geometry" />
        </mxCell>
        <mxCell id="DjzMqCNCpp32R4Y7mPO1-105" style="edgeStyle=orthogonalEdgeStyle;rounded=0;orthogonalLoop=1;jettySize=auto;html=1;entryX=0;entryY=0.75;entryDx=0;entryDy=0;" parent="1" source="DjzMqCNCpp32R4Y7mPO1-104" target="DjzMqCNCpp32R4Y7mPO1-103" edge="1">
          <mxGeometry relative="1" as="geometry">
            <Array as="points">
              <mxPoint x="458" y="462" />
            </Array>
          </mxGeometry>
        </mxCell>
        <mxCell id="DjzMqCNCpp32R4Y7mPO1-104" value="" style="verticalLabelPosition=bottom;align=center;html=1;verticalAlign=top;pointerEvents=1;dashed=0;shape=mxgraph.pid2valves.valve;valveType=ball" parent="1" vertex="1">
          <mxGeometry x="398" y="452" width="30" height="20" as="geometry" />
        </mxCell>
        <mxCell id="DjzMqCNCpp32R4Y7mPO1-106" style="edgeStyle=orthogonalEdgeStyle;rounded=0;orthogonalLoop=1;jettySize=auto;html=1;entryX=0;entryY=0.5;entryDx=0;entryDy=0;entryPerimeter=0;" parent="1" source="DjzMqCNCpp32R4Y7mPO1-103" target="DjzMqCNCpp32R4Y7mPO1-100" edge="1">
          <mxGeometry relative="1" as="geometry" />
        </mxCell>
        <mxCell id="DjzMqCNCpp32R4Y7mPO1-107" style="edgeStyle=orthogonalEdgeStyle;rounded=0;orthogonalLoop=1;jettySize=auto;html=1;entryX=-0.003;entryY=0.757;entryDx=0;entryDy=0;entryPerimeter=0;" parent="1" source="DjzMqCNCpp32R4Y7mPO1-108" target="DjzMqCNCpp32R4Y7mPO1-100" edge="1">
          <mxGeometry relative="1" as="geometry">
            <mxPoint x="508" y="802" as="targetPoint" />
          </mxGeometry>
        </mxCell>
        <mxCell id="DjzMqCNCpp32R4Y7mPO1-108" value="" style="verticalLabelPosition=bottom;align=center;html=1;verticalAlign=top;pointerEvents=1;dashed=0;shape=mxgraph.pid2valves.valve;valveType=ball" parent="1" vertex="1">
          <mxGeometry x="398" y="802" width="30" height="20" as="geometry" />
        </mxCell>
        <mxCell id="DjzMqCNCpp32R4Y7mPO1-112" value="" style="edgeStyle=orthogonalEdgeStyle;rounded=0;orthogonalLoop=1;jettySize=auto;html=1;" parent="1" source="DjzMqCNCpp32R4Y7mPO1-110" target="DjzMqCNCpp32R4Y7mPO1-81" edge="1">
          <mxGeometry relative="1" as="geometry" />
        </mxCell>
        <mxCell id="raOoSxsyEfahjdPdxXgE-17" style="edgeStyle=orthogonalEdgeStyle;rounded=0;orthogonalLoop=1;jettySize=auto;html=1;entryX=1;entryY=0.5;entryDx=0;entryDy=0;dashed=1;dashPattern=8 8;fillColor=#f8cecc;strokeColor=#b85450;" parent="1" source="DjzMqCNCpp32R4Y7mPO1-110" target="raOoSxsyEfahjdPdxXgE-10" edge="1">
          <mxGeometry relative="1" as="geometry">
            <Array as="points">
              <mxPoint x="836" y="780" />
              <mxPoint x="836" y="910" />
            </Array>
          </mxGeometry>
        </mxCell>
        <mxCell id="raOoSxsyEfahjdPdxXgE-19" style="edgeStyle=orthogonalEdgeStyle;rounded=0;orthogonalLoop=1;jettySize=auto;html=1;entryX=0.5;entryY=1;entryDx=0;entryDy=0;dashed=1;dashPattern=8 8;fillColor=#f8cecc;strokeColor=#b85450;" parent="1" source="DjzMqCNCpp32R4Y7mPO1-110" target="raOoSxsyEfahjdPdxXgE-9" edge="1">
          <mxGeometry relative="1" as="geometry">
            <mxPoint x="655" y="960" as="targetPoint" />
            <Array as="points">
              <mxPoint x="1070" y="762" />
              <mxPoint x="1070" y="980" />
              <mxPoint x="690" y="980" />
            </Array>
          </mxGeometry>
        </mxCell>
        <mxCell id="raOoSxsyEfahjdPdxXgE-21" value="Text" style="edgeLabel;html=1;align=center;verticalAlign=middle;resizable=0;points=[];" parent="raOoSxsyEfahjdPdxXgE-19" vertex="1" connectable="0">
          <mxGeometry x="0.1693" y="-1" relative="1" as="geometry">
            <mxPoint as="offset" />
          </mxGeometry>
        </mxCell>
        <mxCell id="DjzMqCNCpp32R4Y7mPO1-110" value="" style="shape=mxgraph.pid.vessels.mixing_reactor;html=1;pointerEvents=1;align=center;verticalLabelPosition=bottom;verticalAlign=top;dashed=0;" parent="1" vertex="1">
          <mxGeometry x="878" y="664.5" width="150" height="195" as="geometry" />
        </mxCell>
        <mxCell id="DjzMqCNCpp32R4Y7mPO1-113" style="edgeStyle=orthogonalEdgeStyle;rounded=0;orthogonalLoop=1;jettySize=auto;html=1;entryX=0;entryY=0.5;entryDx=0;entryDy=0;entryPerimeter=0;" parent="1" source="DjzMqCNCpp32R4Y7mPO1-114" target="DjzMqCNCpp32R4Y7mPO1-110" edge="1">
          <mxGeometry relative="1" as="geometry">
            <mxPoint x="848" y="789" as="targetPoint" />
          </mxGeometry>
        </mxCell>
        <mxCell id="DjzMqCNCpp32R4Y7mPO1-114" value="" style="verticalLabelPosition=bottom;align=center;html=1;verticalAlign=top;pointerEvents=1;dashed=0;shape=mxgraph.pid2valves.valve;valveType=ball" parent="1" vertex="1">
          <mxGeometry x="748" y="752" width="30" height="20" as="geometry" />
        </mxCell>
        <mxCell id="DjzMqCNCpp32R4Y7mPO1-122" style="edgeStyle=orthogonalEdgeStyle;rounded=0;orthogonalLoop=1;jettySize=auto;html=1;entryX=0;entryY=0.5;entryDx=0;entryDy=0;entryPerimeter=0;" parent="1" source="DjzMqCNCpp32R4Y7mPO1-100" target="DjzMqCNCpp32R4Y7mPO1-114" edge="1">
          <mxGeometry relative="1" as="geometry" />
        </mxCell>
        <mxCell id="DjzMqCNCpp32R4Y7mPO1-125" value="" style="endArrow=classic;html=1;rounded=0;entryX=-0.1;entryY=0.643;entryDx=0;entryDy=0;entryPerimeter=0;" parent="1" edge="1">
          <mxGeometry width="50" height="50" relative="1" as="geometry">
            <mxPoint x="268" y="462" as="sourcePoint" />
            <mxPoint x="398" y="461.71000000000015" as="targetPoint" />
          </mxGeometry>
        </mxCell>
        <mxCell id="DjzMqCNCpp32R4Y7mPO1-126" value="" style="endArrow=classic;html=1;rounded=0;entryX=-0.1;entryY=0.643;entryDx=0;entryDy=0;entryPerimeter=0;" parent="1" edge="1">
          <mxGeometry width="50" height="50" relative="1" as="geometry">
            <mxPoint x="278" y="812" as="sourcePoint" />
            <mxPoint x="398" y="811.7100000000002" as="targetPoint" />
          </mxGeometry>
        </mxCell>
        <mxCell id="raOoSxsyEfahjdPdxXgE-5" style="edgeStyle=orthogonalEdgeStyle;rounded=0;orthogonalLoop=1;jettySize=auto;html=1;entryX=1.022;entryY=0.385;entryDx=0;entryDy=0;entryPerimeter=0;" parent="1" source="raOoSxsyEfahjdPdxXgE-6" target="DjzMqCNCpp32R4Y7mPO1-100" edge="1">
          <mxGeometry relative="1" as="geometry">
            <mxPoint x="518" y="822" as="targetPoint" />
          </mxGeometry>
        </mxCell>
        <mxCell id="raOoSxsyEfahjdPdxXgE-6" value="" style="verticalLabelPosition=bottom;align=center;html=1;verticalAlign=top;pointerEvents=1;dashed=0;shape=mxgraph.pid2valves.valve;valveType=ball" parent="1" vertex="1">
          <mxGeometry x="700" y="682" width="30" height="20" as="geometry" />
        </mxCell>
        <mxCell id="raOoSxsyEfahjdPdxXgE-7" value="" style="endArrow=classic;html=1;rounded=0;" parent="1" edge="1">
          <mxGeometry width="50" height="50" relative="1" as="geometry">
            <mxPoint x="760" y="692" as="sourcePoint" />
            <mxPoint x="730" y="692" as="targetPoint" />
          </mxGeometry>
        </mxCell>
        <mxCell id="raOoSxsyEfahjdPdxXgE-8" value="&lt;font style=&quot;font-size: 20px;&quot;&gt;FC&lt;/font&gt;" style="ellipse;whiteSpace=wrap;html=1;" parent="1" vertex="1">
          <mxGeometry x="743" y="802" width="40" height="40" as="geometry" />
        </mxCell>
        <mxCell id="raOoSxsyEfahjdPdxXgE-15" style="edgeStyle=orthogonalEdgeStyle;rounded=0;orthogonalLoop=1;jettySize=auto;html=1;entryX=0.5;entryY=1;entryDx=0;entryDy=0;dashed=1;dashPattern=8 8;fillColor=#f8cecc;strokeColor=#b85450;" parent="1" source="raOoSxsyEfahjdPdxXgE-9" target="raOoSxsyEfahjdPdxXgE-8" edge="1">
          <mxGeometry relative="1" as="geometry">
            <Array as="points">
              <mxPoint x="690" y="880" />
              <mxPoint x="763" y="880" />
            </Array>
          </mxGeometry>
        </mxCell>
        <mxCell id="raOoSxsyEfahjdPdxXgE-9" value="&lt;font style=&quot;font-size: 20px;&quot;&gt;X&lt;/font&gt;" style="ellipse;whiteSpace=wrap;html=1;" parent="1" vertex="1">
          <mxGeometry x="670" y="890" width="40" height="40" as="geometry" />
        </mxCell>
        <mxCell id="raOoSxsyEfahjdPdxXgE-16" style="edgeStyle=orthogonalEdgeStyle;rounded=0;orthogonalLoop=1;jettySize=auto;html=1;entryX=1;entryY=0.5;entryDx=0;entryDy=0;" parent="1" source="raOoSxsyEfahjdPdxXgE-10" target="raOoSxsyEfahjdPdxXgE-9" edge="1">
          <mxGeometry relative="1" as="geometry">
            <mxPoint x="778.5" y="920" as="targetPoint" />
          </mxGeometry>
        </mxCell>
        <mxCell id="raOoSxsyEfahjdPdxXgE-10" value="&lt;font style=&quot;font-size: 20px;&quot;&gt;LC&lt;/font&gt;" style="ellipse;whiteSpace=wrap;html=1;" parent="1" vertex="1">
          <mxGeometry x="743" y="890" width="40" height="40" as="geometry" />
        </mxCell>
        <mxCell id="raOoSxsyEfahjdPdxXgE-14" style="edgeStyle=orthogonalEdgeStyle;rounded=0;orthogonalLoop=1;jettySize=auto;html=1;entryX=0.492;entryY=0.915;entryDx=0;entryDy=0;entryPerimeter=0;dashed=1;dashPattern=8 8;fillColor=#f8cecc;strokeColor=#b85450;" parent="1" source="raOoSxsyEfahjdPdxXgE-8" target="DjzMqCNCpp32R4Y7mPO1-114" edge="1">
          <mxGeometry relative="1" as="geometry">
            <mxPoint x="760" y="770" as="targetPoint" />
          </mxGeometry>
        </mxCell>
        <mxCell id="raOoSxsyEfahjdPdxXgE-27" value="&lt;font style=&quot;font-size: 20px;&quot;&gt;FC&lt;/font&gt;" style="ellipse;whiteSpace=wrap;html=1;" parent="1" vertex="1">
          <mxGeometry x="393" y="842" width="40" height="40" as="geometry" />
        </mxCell>
        <mxCell id="raOoSxsyEfahjdPdxXgE-28" value="&lt;font style=&quot;font-size: 20px;&quot;&gt;LC&lt;/font&gt;" style="ellipse;whiteSpace=wrap;html=1;" parent="1" vertex="1">
          <mxGeometry x="393" y="340" width="40" height="40" as="geometry" />
        </mxCell>
        <mxCell id="raOoSxsyEfahjdPdxXgE-29" value="&lt;font style=&quot;font-size: 20px;&quot;&gt;LC&lt;/font&gt;" style="ellipse;whiteSpace=wrap;html=1;" parent="1" vertex="1">
          <mxGeometry x="393" y="400" width="40" height="40" as="geometry" />
        </mxCell>
        <mxCell id="raOoSxsyEfahjdPdxXgE-30" value="&lt;font style=&quot;font-size: 20px;&quot;&gt;LS&lt;/font&gt;" style="ellipse;whiteSpace=wrap;html=1;" parent="1" vertex="1">
          <mxGeometry x="1210" y="452" width="40" height="40" as="geometry" />
        </mxCell>
        <mxCell id="raOoSxsyEfahjdPdxXgE-34" value="&lt;font style=&quot;font-size: 20px;&quot;&gt;TC&lt;/font&gt;" style="ellipse;whiteSpace=wrap;html=1;" parent="1" vertex="1">
          <mxGeometry x="695" y="622" width="40" height="40" as="geometry" />
        </mxCell>
        <mxCell id="raOoSxsyEfahjdPdxXgE-35" style="edgeStyle=orthogonalEdgeStyle;rounded=0;orthogonalLoop=1;jettySize=auto;html=1;" parent="1" source="raOoSxsyEfahjdPdxXgE-30" edge="1">
          <mxGeometry relative="1" as="geometry">
            <mxPoint x="1341" y="630" as="targetPoint" />
            <Array as="points">
              <mxPoint x="1260" y="472" />
              <mxPoint x="1260" y="590" />
              <mxPoint x="1341" y="590" />
            </Array>
          </mxGeometry>
        </mxCell>
        <mxCell id="raOoSxsyEfahjdPdxXgE-39" value="&lt;span style=&quot;font-size: 20px;&quot;&gt;PC&lt;/span&gt;" style="ellipse;whiteSpace=wrap;html=1;" parent="1" vertex="1">
          <mxGeometry x="1490" y="462" width="40" height="40" as="geometry" />
        </mxCell>
        <mxCell id="raOoSxsyEfahjdPdxXgE-37" value="" style="verticalLabelPosition=bottom;align=center;html=1;verticalAlign=top;pointerEvents=1;dashed=0;shape=mxgraph.pid2valves.valve;valveType=ball" parent="1" vertex="1">
          <mxGeometry x="1370" y="472" width="30" height="20" as="geometry" />
        </mxCell>
        <mxCell id="raOoSxsyEfahjdPdxXgE-47" style="edgeStyle=orthogonalEdgeStyle;rounded=0;orthogonalLoop=1;jettySize=auto;html=1;entryX=0.5;entryY=1;entryDx=0;entryDy=0;" parent="1" source="DjzMqCNCpp32R4Y7mPO1-73" target="raOoSxsyEfahjdPdxXgE-39" edge="1">
          <mxGeometry relative="1" as="geometry" />
        </mxCell>
        <mxCell id="raOoSxsyEfahjdPdxXgE-48" style="edgeStyle=orthogonalEdgeStyle;rounded=0;orthogonalLoop=1;jettySize=auto;html=1;entryX=1;entryY=0.5;entryDx=0;entryDy=0;entryPerimeter=0;" parent="1" source="raOoSxsyEfahjdPdxXgE-39" target="raOoSxsyEfahjdPdxXgE-37" edge="1">
          <mxGeometry relative="1" as="geometry" />
        </mxCell>
        <mxCell id="raOoSxsyEfahjdPdxXgE-49" style="edgeStyle=orthogonalEdgeStyle;rounded=0;orthogonalLoop=1;jettySize=auto;html=1;entryX=0.5;entryY=0.124;entryDx=0;entryDy=0;entryPerimeter=0;" parent="1" source="raOoSxsyEfahjdPdxXgE-37" target="raOoSxsyEfahjdPdxXgE-40" edge="1">
          <mxGeometry relative="1" as="geometry" />
        </mxCell>
        <mxCell id="Fisk6T6DbjHirBb1iTBB-7" value="&lt;font style=&quot;font-size: 20px;&quot;&gt;X&lt;/font&gt;" style="ellipse;whiteSpace=wrap;html=1;" vertex="1" parent="1">
          <mxGeometry x="1300" y="1050" width="40" height="40" as="geometry" />
        </mxCell>
        <mxCell id="Fisk6T6DbjHirBb1iTBB-9" style="edgeStyle=orthogonalEdgeStyle;rounded=0;orthogonalLoop=1;jettySize=auto;html=1;entryX=1.051;entryY=0.531;entryDx=0;entryDy=0;entryPerimeter=0;" edge="1" parent="1" target="Fisk6T6DbjHirBb1iTBB-3">
          <mxGeometry relative="1" as="geometry">
            <mxPoint x="1390" y="1031" as="sourcePoint" />
            <mxPoint x="1290" y="995" as="targetPoint" />
            <Array as="points">
              <mxPoint x="1390" y="1030" />
              <mxPoint x="1361" y="1030" />
            </Array>
          </mxGeometry>
        </mxCell>
        <mxCell id="Fisk6T6DbjHirBb1iTBB-11" style="edgeStyle=orthogonalEdgeStyle;rounded=0;orthogonalLoop=1;jettySize=auto;html=1;" edge="1" parent="1" source="Fisk6T6DbjHirBb1iTBB-10" target="DjzMqCNCpp32R4Y7mPO1-40">
          <mxGeometry relative="1" as="geometry" />
        </mxCell>
        <mxCell id="Fisk6T6DbjHirBb1iTBB-10" value="&lt;font style=&quot;font-size: 20px;&quot;&gt;LC&lt;/font&gt;" style="ellipse;whiteSpace=wrap;html=1;" vertex="1" parent="1">
          <mxGeometry x="1485" y="1060" width="40" height="40" as="geometry" />
        </mxCell>
      </root>
    </mxGraphModel>
  </diagram>
</mxfile>
